<mxfile host="app.diagrams.net" modified="2023-02-26T18:17:26.563Z" agent="5.0 (Windows NT 10.0; Win64; x64) AppleWebKit/537.36 (KHTML, like Gecko) Chrome/110.0.0.0 Safari/537.36" etag="WPMEWuGAsWBs8T-7MJa8" version="20.8.23" type="github">
  <diagram name="Page-1" id="-I2RrOsuAbHPlEbhCyhT">
    <mxGraphModel dx="1418" dy="519" grid="0" gridSize="10" guides="1" tooltips="1" connect="1" arrows="1" fold="1" page="0" pageScale="1" pageWidth="850" pageHeight="1100" math="0" shadow="0">
      <root>
        <mxCell id="0" />
        <mxCell id="1" parent="0" />
        <mxCell id="RYZTqpbMyyFkifUs5dxj-9" style="edgeStyle=none;curved=1;rounded=0;orthogonalLoop=1;jettySize=auto;html=1;fontSize=12;startSize=8;endSize=8;entryX=1;entryY=0.75;entryDx=0;entryDy=0;" edge="1" parent="1" target="RYZTqpbMyyFkifUs5dxj-2">
          <mxGeometry relative="1" as="geometry">
            <mxPoint x="-172" y="345" as="sourcePoint" />
            <mxPoint x="-172" y="336" as="targetPoint" />
            <Array as="points">
              <mxPoint x="-172" y="382" />
            </Array>
          </mxGeometry>
        </mxCell>
        <mxCell id="RYZTqpbMyyFkifUs5dxj-198" style="edgeStyle=none;rounded=0;orthogonalLoop=1;jettySize=auto;html=1;entryX=0.012;entryY=0.342;entryDx=0;entryDy=0;fontSize=8;startArrow=none;startFill=0;endArrow=none;endFill=0;startSize=8;endSize=8;entryPerimeter=0;" edge="1" parent="1" target="RYZTqpbMyyFkifUs5dxj-192">
          <mxGeometry relative="1" as="geometry">
            <mxPoint x="-128" y="366" as="sourcePoint" />
            <Array as="points" />
          </mxGeometry>
        </mxCell>
        <mxCell id="RYZTqpbMyyFkifUs5dxj-200" style="edgeStyle=none;rounded=0;orthogonalLoop=1;jettySize=auto;html=1;entryX=0;entryY=0.5;entryDx=0;entryDy=0;fontSize=8;startArrow=none;startFill=0;endArrow=none;endFill=0;startSize=8;endSize=8;" edge="1" parent="1" source="RYZTqpbMyyFkifUs5dxj-1" target="RYZTqpbMyyFkifUs5dxj-192">
          <mxGeometry relative="1" as="geometry" />
        </mxCell>
        <mxCell id="RYZTqpbMyyFkifUs5dxj-1" value="" style="shape=image;verticalLabelPosition=bottom;labelBackgroundColor=default;verticalAlign=top;aspect=fixed;imageAspect=0;image=https://cdn4.vectorstock.com/i/1000x1000/07/63/laptop-a-simple-linear-drawing-on-a-white-vector-28450763.jpg;clipPath=inset(26.33% 22.66% 34.33% 23.02%);" vertex="1" parent="1">
          <mxGeometry x="-202.07999999999998" y="349" width="73" height="57.04" as="geometry" />
        </mxCell>
        <mxCell id="RYZTqpbMyyFkifUs5dxj-10" style="edgeStyle=none;curved=1;rounded=0;orthogonalLoop=1;jettySize=auto;html=1;entryX=0.75;entryY=0;entryDx=0;entryDy=0;fontSize=12;startSize=8;endSize=8;" edge="1" parent="1" source="RYZTqpbMyyFkifUs5dxj-2" target="RYZTqpbMyyFkifUs5dxj-1">
          <mxGeometry relative="1" as="geometry" />
        </mxCell>
        <mxCell id="RYZTqpbMyyFkifUs5dxj-2" value="" style="shape=image;verticalLabelPosition=bottom;labelBackgroundColor=default;verticalAlign=top;aspect=fixed;imageAspect=0;image=https://webdeasy.de/wp-content/uploads/2020/05/Untitled-Document.png;clipPath=inset(4.64% 46% 47.94% 46%);direction=south;" vertex="1" parent="1">
          <mxGeometry x="-202.07500000000002" y="176.005" width="109" height="56.87" as="geometry" />
        </mxCell>
        <mxCell id="RYZTqpbMyyFkifUs5dxj-11" value="&lt;font style=&quot;font-size: 12px;&quot;&gt;Dns server&lt;/font&gt;" style="text;html=1;strokeColor=none;fillColor=none;align=center;verticalAlign=middle;whiteSpace=wrap;rounded=0;fontSize=16;" vertex="1" parent="1">
          <mxGeometry x="-184" y="155" width="66.43" height="30" as="geometry" />
        </mxCell>
        <mxCell id="RYZTqpbMyyFkifUs5dxj-12" value="client" style="text;html=1;strokeColor=none;fillColor=none;align=center;verticalAlign=middle;whiteSpace=wrap;rounded=0;fontSize=12;" vertex="1" parent="1">
          <mxGeometry x="-191" y="400" width="60" height="31" as="geometry" />
        </mxCell>
        <mxCell id="RYZTqpbMyyFkifUs5dxj-75" value="where is&amp;nbsp;&lt;br&gt;www.foobar.com" style="text;html=1;strokeColor=none;fillColor=none;align=center;verticalAlign=middle;whiteSpace=wrap;rounded=0;fontSize=11;" vertex="1" parent="1">
          <mxGeometry x="-266" y="269" width="93" height="30" as="geometry" />
        </mxCell>
        <mxCell id="RYZTqpbMyyFkifUs5dxj-76" value="www.foobar.com&lt;br&gt;is at&lt;br&gt;8.8.8.8" style="text;html=1;strokeColor=none;fillColor=none;align=center;verticalAlign=middle;whiteSpace=wrap;rounded=0;fontSize=11;" vertex="1" parent="1">
          <mxGeometry x="-147" y="256" width="102" height="40" as="geometry" />
        </mxCell>
        <mxCell id="RYZTqpbMyyFkifUs5dxj-85" value="&lt;h1 style=&quot;border-color: var(--border-color); font-size: 10px;&quot;&gt;&lt;p style=&quot;margin-bottom:0in;margin-bottom:.0001pt&quot; class=&quot;MsoNormal&quot;&gt;Explanation for Adding Each Element:&lt;/p&gt;&lt;p style=&quot;margin-bottom:0in;margin-bottom:.0001pt&quot; class=&quot;MsoNormal&quot;&gt;&lt;span style=&quot;font-size: 8pt; line-height: 107%; font-weight: normal;&quot;&gt;Two Servers:&lt;/span&gt;&lt;span style=&quot;font-size: 8pt; font-weight: normal; background-color: initial;&quot;&gt;Two servers are necessary to ensure redundancy&lt;/span&gt;&lt;span style=&quot;font-size: 8pt; font-weight: normal; background-color: initial;&quot;&gt;&amp;nbsp;and availability in case one server fails or needs maintenance.&lt;/span&gt;&lt;span style=&quot;font-size: 8pt; font-weight: normal; background-color: initial;&quot;&gt;Having multiple servers also allows for load balancing, which helps with performance&lt;/span&gt;&lt;span style=&quot;font-size: 8pt; font-weight: normal; background-color: initial;&quot;&gt;&amp;nbsp;and scalability.&lt;/span&gt;&lt;/p&gt;&lt;p style=&quot;margin-bottom:0in;margin-bottom:.0001pt&quot; class=&quot;MsoNormal&quot;&gt;&lt;span style=&quot;font-size: 8pt; line-height: 107%; font-weight: normal;&quot;&gt;One Load Balancer (HAproxy):&lt;/span&gt;&lt;span style=&quot;font-size: 8pt; font-weight: normal; background-color: initial;&quot;&gt;A load balancer distributes incoming traffic&lt;/span&gt;&lt;span style=&quot;font-size: 8pt; font-weight: normal; background-color: initial;&quot;&gt;&amp;nbsp;across multiple servers to ensure efficient usage and prevent overloading&lt;/span&gt;&lt;span style=&quot;font-size: 8pt; font-weight: normal; background-color: initial;&quot;&gt;&amp;nbsp;of a single server. HAproxy is a reliable and widely used open-source&lt;/span&gt;&lt;span style=&quot;font-size: 8pt; font-weight: normal; background-color: initial;&quot;&gt;&amp;nbsp;load balancer.&lt;/span&gt;&lt;/p&gt;&lt;p style=&quot;margin-bottom:0in;margin-bottom:.0001pt&quot; class=&quot;MsoNormal&quot;&gt;&lt;span style=&quot;font-size: 8pt; line-height: 107%; font-weight: normal;&quot;&gt;One Web Server (Nginx):&lt;/span&gt;&lt;span style=&quot;font-size: 8pt; font-weight: normal; background-color: initial;&quot;&gt;Nginx is a fast and efficient web server&lt;/span&gt;&lt;span style=&quot;font-size: 8pt; font-weight: normal; background-color: initial;&quot;&gt;&amp;nbsp;that can handle large amounts of traffic. It is commonly used as a&lt;/span&gt;&lt;span style=&quot;font-size: 8pt; font-weight: normal; background-color: initial;&quot;&gt;reverse proxy and load balancer, as well as for serving static content.&lt;/span&gt;&lt;/p&gt;&lt;p style=&quot;margin-bottom:0in;margin-bottom:.0001pt&quot; class=&quot;MsoNormal&quot;&gt;&lt;span style=&quot;font-size: 8pt; line-height: 107%; font-weight: normal;&quot;&gt;One Application Server:&lt;/span&gt;&lt;span style=&quot;font-size: 8pt; font-weight: normal; background-color: initial;&quot;&gt;The application server hosts the code that&lt;/span&gt;&lt;span style=&quot;font-size: 8pt; font-weight: normal; background-color: initial;&quot;&gt;&amp;nbsp;runs the website&#39;s dynamic content and interacts with the database.&lt;/span&gt;&lt;/p&gt;&lt;p style=&quot;margin-bottom:0in;margin-bottom:.0001pt&quot; class=&quot;MsoNormal&quot;&gt;&lt;span style=&quot;font-size: 8pt; line-height: 107%; font-weight: normal;&quot;&gt;One Set of Application Files (YourCode Base):&lt;/span&gt;&lt;span style=&quot;font-size: 8pt; font-weight: normal; background-color: initial;&quot;&gt;The application files contain the website&#39;s&lt;/span&gt;&lt;span style=&quot;font-size: 8pt; font-weight: normal; background-color: initial;&quot;&gt;&amp;nbsp;codebase and are necessary to run the website&#39;s dynamic content.&lt;/span&gt;&lt;/p&gt;&lt;p style=&quot;margin-bottom:0in;margin-bottom:.0001pt&quot; class=&quot;MsoNormal&quot;&gt;&lt;span style=&quot;font-size: 8pt; line-height: 107%; font-weight: normal;&quot;&gt;One Database (MySQL):&lt;/span&gt;&lt;span style=&quot;font-size: 8pt; font-weight: normal; background-color: initial;&quot;&gt;MySQL is a popular open-source database&lt;/span&gt;&lt;span style=&quot;font-size: 8pt; font-weight: normal; background-color: initial;&quot;&gt;&amp;nbsp;management system that is widely used for web applications. It is a reliable&lt;/span&gt;&lt;span style=&quot;font-size: 8pt; font-weight: normal; background-color: initial;&quot;&gt;&amp;nbsp;and scalable database that can handle large amounts of data.&lt;/span&gt;&lt;/p&gt;&lt;p style=&quot;margin-bottom:0in;margin-bottom:.0001pt&quot; class=&quot;MsoNormal&quot;&gt;&lt;span style=&quot;font-size: 8pt; line-height: 107%; font-weight: normal;&quot;&gt;Load Balancer Configuration:&lt;/span&gt;&lt;span style=&quot;font-size: 8pt; font-weight: normal; background-color: initial;&quot;&gt;The load balancer will be configured with&lt;/span&gt;&lt;span style=&quot;font-size: 8pt; font-weight: normal; background-color: initial;&quot;&gt;&amp;nbsp;a round-robin distribution algorithm. This algorithm evenly distributes incoming&lt;/span&gt;&lt;span style=&quot;font-size: 8pt; font-weight: normal; background-color: initial;&quot;&gt;&amp;nbsp;requests across all available servers. This ensures that each server receives&lt;/span&gt;&lt;span style=&quot;font-size: 8pt; font-weight: normal; background-color: initial;&quot;&gt;&amp;nbsp;an equal amount of traffic and helps prevent the overloading of any one server&lt;/span&gt;&lt;span style=&quot;font-size: 8pt; font-weight: normal; background-color: initial;&quot;&gt;.&lt;/span&gt;&lt;/p&gt;&lt;p style=&quot;margin-bottom:0in;margin-bottom:.0001pt&quot; class=&quot;MsoNormal&quot;&gt;&lt;span style=&quot;font-size: 8pt; line-height: 107%; font-weight: normal;&quot;&gt;Active-Active vs. Active-Passive Setup:&lt;/span&gt;&lt;span style=&quot;font-size: 8pt; font-weight: normal; background-color: initial;&quot;&gt;The load balancer will enable an&amp;nbsp;&lt;/span&gt;&lt;span style=&quot;font-size: 8pt; font-weight: normal; background-color: initial;&quot;&gt;active-active setup. In this setup, all servers are actively serving traffic&amp;nbsp;&lt;/span&gt;&lt;span style=&quot;font-size: 8pt; font-weight: normal; background-color: initial;&quot;&gt;and can handle requests. An active-passive setup would have one server actively&amp;nbsp;&lt;/span&gt;&lt;span style=&quot;font-size: 8pt; font-weight: normal; background-color: initial;&quot;&gt;serving traffic while the other server is on standby and only becomes active if&amp;nbsp;&lt;/span&gt;&lt;span style=&quot;font-size: 8pt; font-weight: normal; background-color: initial;&quot;&gt;the primary server fails.&lt;/span&gt;&lt;/p&gt;&lt;p style=&quot;margin-bottom:0in;margin-bottom:.0001pt&quot; class=&quot;MsoNormal&quot;&gt;&lt;span style=&quot;font-size: 8pt; line-height: 107%; font-weight: normal;&quot;&gt;Primary-Replica (Master-Slave)Cluster:&amp;nbsp;&lt;/span&gt;&lt;span style=&quot;font-size: 8pt; font-weight: normal; background-color: initial;&quot;&gt;In a Primary-Replica cluster, the&amp;nbsp;&lt;/span&gt;&lt;span style=&quot;font-size: 8pt; font-weight: normal; background-color: initial;&quot;&gt;primary node (also known as the master) is responsible for receiving and processing&amp;nbsp;&lt;/span&gt;&lt;span style=&quot;font-size: 8pt; font-weight: normal; background-color: initial;&quot;&gt;write requests, while the replica node (also known as the slave) replicates the&amp;nbsp;&lt;/span&gt;&lt;span style=&quot;font-size: 8pt; font-weight: normal; background-color: initial;&quot;&gt;primary node&#39;s data and serves read requests. The primary node is the&amp;nbsp;&lt;/span&gt;&lt;span style=&quot;font-size: 8pt; font-weight: normal; background-color: initial;&quot;&gt;authoritative source of data and all write requests must go through it.&lt;/span&gt;&lt;/p&gt;&lt;p style=&quot;margin-bottom:0in;margin-bottom:.0001pt&quot; class=&quot;MsoNormal&quot;&gt;&lt;span style=&quot;font-size: 8pt; line-height: 107%; font-weight: normal;&quot;&gt;Difference Between Primary and Replica&amp;nbsp;&lt;/span&gt;&lt;/p&gt;&lt;p style=&quot;margin-bottom:0in;margin-bottom:.0001pt&quot; class=&quot;MsoNormal&quot;&gt;&lt;span style=&quot;font-size: 8pt; line-height: 107%; font-weight: normal;&quot;&gt;Nodes:&amp;nbsp;&lt;/span&gt;&lt;span style=&quot;font-size: 8pt; font-weight: normal; background-color: initial;&quot;&gt;The primary node is responsible for&amp;nbsp;&lt;/span&gt;&lt;span style=&quot;font-size: 8pt; font-weight: normal; background-color: initial;&quot;&gt;processing write requests and is the authoritative source of data. The replica&amp;nbsp;&lt;/span&gt;&lt;span style=&quot;font-size: 8pt; font-weight: normal; background-color: initial;&quot;&gt;node is responsible for replicating data from the primary node and serving read&amp;nbsp;&lt;/span&gt;&lt;span style=&quot;font-size: 8pt; font-weight: normal; background-color: initial;&quot;&gt;requests. The replica node cannot accept write requests and only has a&amp;nbsp;&lt;/span&gt;&lt;span style=&quot;font-size: 8pt; font-weight: normal; background-color: initial;&quot;&gt;read-only copy of the data.&lt;/span&gt;&lt;/p&gt;&lt;p style=&quot;margin-bottom:0in;margin-bottom:.0001pt&quot; class=&quot;MsoNormal&quot;&gt;&lt;span style=&quot;font-size: 8pt; line-height: 107%; font-weight: normal;&quot;&gt;Issues with Infrastructure:&lt;/span&gt;&lt;/p&gt;&lt;p style=&quot;margin-bottom:0in;margin-bottom:.0001pt&quot; class=&quot;MsoNormal&quot;&gt;&lt;span style=&quot;font-size: 8pt; font-weight: normal; background-color: initial;&quot;&gt;Single Point of Failure (SPOF):&amp;nbsp;&lt;/span&gt;&lt;span style=&quot;font-size: 8pt; font-weight: normal; background-color: initial;&quot;&gt;This infrastructure has a single point&amp;nbsp;&lt;/span&gt;&lt;span style=&quot;font-size: 8pt; font-weight: normal; background-color: initial;&quot;&gt;of failure in the load balancer. If the load balancer fails, traffic will not&amp;nbsp;&lt;/span&gt;&lt;span style=&quot;font-size: 8pt; font-weight: normal; background-color: initial;&quot;&gt;be distributed across the servers, and the website will be unavailable.&lt;/span&gt;&lt;/p&gt;&lt;p style=&quot;margin-bottom:0in;margin-bottom:.0001pt&quot; class=&quot;MsoNormal&quot;&gt;&lt;span style=&quot;font-size: 8pt; line-height: 107%; font-weight: normal;&quot;&gt;Security Issues:&amp;nbsp;&lt;/span&gt;&lt;span style=&quot;font-size: 8pt; font-weight: normal; background-color: initial;&quot;&gt;There are security issues with this&amp;nbsp;&lt;/span&gt;&lt;span style=&quot;font-size: 8pt; font-weight: normal; background-color: initial;&quot;&gt;infrastructure, including the lack of a firewall and HTTPS. Without a firewall,&amp;nbsp;&lt;/span&gt;&lt;span style=&quot;font-size: 8pt; font-weight: normal; background-color: initial;&quot;&gt;the servers are vulnerable to attacks from external sources, and without HTTPS,&amp;nbsp;&lt;/span&gt;&lt;span style=&quot;font-size: 8pt; font-weight: normal; background-color: initial;&quot;&gt;communication between the servers and clients is not encrypted.&lt;/span&gt;&lt;/p&gt;&lt;p style=&quot;margin-bottom:0in;margin-bottom:.0001pt&quot; class=&quot;MsoNormal&quot;&gt;&lt;span style=&quot;font-size: 8pt; line-height: 107%; font-weight: normal;&quot;&gt;No Monitoring:&amp;nbsp;&lt;/span&gt;&lt;span style=&quot;font-weight: normal; background-color: initial;&quot;&gt;There is no monitoring system in place&amp;nbsp;&lt;/span&gt;&lt;span style=&quot;font-weight: normal; background-color: initial;&quot;&gt;to track the performance and availability of the servers, load balancer, and&amp;nbsp;&lt;/span&gt;&lt;span style=&quot;font-weight: normal; background-color: initial;&quot;&gt;database. This makes it difficult to identify and address issues before they&amp;nbsp;&lt;/span&gt;&lt;span style=&quot;font-weight: normal; background-color: initial;&quot;&gt;affect the website&#39;s availability and performance.&lt;/span&gt;&lt;/p&gt;&lt;p style=&quot;border-color: var(--border-color); margin-bottom: 0.0001pt;&quot; class=&quot;MsoNormal&quot;&gt;&lt;span style=&quot;font-weight: normal;&quot;&gt;&lt;br&gt;&lt;br&gt;&lt;br&gt;&lt;br&gt;&lt;br&gt;&lt;br&gt;&lt;br&gt;&lt;br&gt;&lt;br&gt;&lt;br&gt;&lt;br&gt;&lt;br&gt;&lt;br&gt;&lt;br&gt;&lt;br&gt;&lt;br&gt;&lt;br&gt;&lt;br&gt;&lt;br&gt;&lt;br&gt;&lt;br&gt;&lt;br&gt;&lt;br&gt;&lt;br&gt;&lt;br&gt;&lt;br&gt;&lt;br&gt;&lt;br&gt;&lt;br&gt;&lt;br&gt;&lt;br&gt;&lt;br&gt;&lt;br&gt;&lt;br&gt;&lt;br&gt;&lt;br&gt;&lt;br&gt;&lt;br&gt;&lt;br&gt;&lt;br&gt;&lt;br&gt;&lt;br&gt;&lt;br&gt;&lt;br&gt;&lt;br&gt;&lt;br&gt;&lt;br&gt;&lt;br&gt;&lt;br&gt;&lt;br&gt;&lt;br&gt;&lt;br&gt;&lt;br&gt;&lt;/span&gt;&lt;/p&gt;&lt;p style=&quot;margin-bottom:0in;margin-bottom:.0001pt&quot; class=&quot;MsoNormal&quot;&gt;&lt;span style=&quot;font-size: 8pt; line-height: 107%; font-weight: normal;&quot;&gt;There is no monitoring system in place&lt;br&gt;to track the performance and availability of the servers, load balancer, and&lt;br&gt;database. This makes it difficult to identify and address issues before they&lt;br&gt;affect the website&#39;s availability and performance.&lt;/span&gt;&lt;/p&gt;&lt;/h1&gt;" style="text;html=1;strokeColor=none;fillColor=none;spacing=5;spacingTop=-20;whiteSpace=wrap;overflow=hidden;rounded=0;fontSize=11;" vertex="1" parent="1">
          <mxGeometry x="-315" y="714" width="838" height="574" as="geometry" />
        </mxCell>
        <mxCell id="RYZTqpbMyyFkifUs5dxj-86" value="HTTP request" style="text;html=1;strokeColor=none;fillColor=none;align=center;verticalAlign=middle;whiteSpace=wrap;rounded=0;fontSize=10;" vertex="1" parent="1">
          <mxGeometry x="-100" y="344" width="83" height="30" as="geometry" />
        </mxCell>
        <mxCell id="RYZTqpbMyyFkifUs5dxj-87" value="HTTP responce" style="text;html=1;strokeColor=none;fillColor=none;align=center;verticalAlign=middle;whiteSpace=wrap;rounded=0;fontSize=10;" vertex="1" parent="1">
          <mxGeometry x="-109.5" y="374" width="102" height="30" as="geometry" />
        </mxCell>
        <mxCell id="RYZTqpbMyyFkifUs5dxj-152" value="" style="swimlane;startSize=0;fontSize=8;" vertex="1" parent="1">
          <mxGeometry x="115" y="120" width="623" height="559" as="geometry" />
        </mxCell>
        <mxCell id="RYZTqpbMyyFkifUs5dxj-159" value="Load balancer" style="text;html=1;strokeColor=none;fillColor=none;align=center;verticalAlign=middle;whiteSpace=wrap;rounded=0;fontSize=8;" vertex="1" parent="RYZTqpbMyyFkifUs5dxj-152">
          <mxGeometry x="66" y="278" width="90" height="20" as="geometry" />
        </mxCell>
        <mxCell id="RYZTqpbMyyFkifUs5dxj-164" value="" style="swimlane;startSize=0;fontSize=8;" vertex="1" parent="RYZTqpbMyyFkifUs5dxj-152">
          <mxGeometry x="60" y="164" width="200" height="200" as="geometry" />
        </mxCell>
        <mxCell id="RYZTqpbMyyFkifUs5dxj-158" value="" style="shape=image;verticalLabelPosition=bottom;labelBackgroundColor=default;verticalAlign=top;aspect=fixed;imageAspect=0;image=https://phoenixnap.com/kb/wp-content/uploads/2021/06/how-does-load-balancing-work.png;clipPath=inset(41.86% 33.33% 45.35% 54%);" vertex="1" parent="RYZTqpbMyyFkifUs5dxj-164">
          <mxGeometry x="31" y="45.000000000000014" width="107.8" height="62.39" as="geometry" />
        </mxCell>
        <mxCell id="RYZTqpbMyyFkifUs5dxj-183" value="" style="shape=image;verticalLabelPosition=bottom;labelBackgroundColor=default;verticalAlign=top;aspect=fixed;imageAspect=0;image=data:image/png,iVBORw0KGgoAAAANSUhEUgAAAOEAAADhCAMAAAAJbSJIAAAA1VBMVEX///8aMT8kNkL//v////38/PwAFCbj6uspMjkZMkEAAADR09QADh0AHC68yMkXLz2GiIk8Q0gPKjcEIS0AIzK7vr8jNkQAGCvk5eYAEyBeaXGtra6ioqINLTs6P0Lz8/OUlJRsbGzKyso5Q00AGylcXFwqKioAABIbKTIAABjh4eGysrIRERFISEh+fn4ACh1SUlIfHx9vb28XFxc2NjZPWFypt7vo8PNvdXoiKjg1OkNbYGZ+hokAAB2MlZqXoaYADRZFTFIDJC04PUofLDWSm6BBQUEYasaRAAAJEElEQVR4nO2cj1ui3BLHD8JRgVwUhDDYxQxL0TTLyk3Xrnur//9PujMHMDSv1vY+ifvO59lVO0KdrzNnZs6PYowgCIIgCIIgCIIgCIIgCIIgCIIgCIIgCIIgCIIgCIIgCIIgCIIgCIIgCIIgCIIgCILYhsJk/jn2rWAHCnM75U/xdLtvDbvQj4zPYe1bwS70I0mgqtLHSG5QTXCEXAMK1T+RqKY6D0EhUC/+CQbcaRyAQrBG/e6+9HHuTwzhpTlHKKx8+6N7T74fkkL5ozcqpDAv/FsVvqMYO0iFsqLIIM2e1H7+fJj690KGLLPN+UA5QIWCXqdomIZqfK9fzLjCFFTI3BUiIfnwFMaGmg2NZd1SP0qclV80MhQ1riiHqBCAjgc1U5WMeh3MKDVsFrfzMFtrq784O1iFMAyDs3pxOn+cdCogEKXAO7x2luVJmPbwFAo/rd2xYFLCN+Rnm7lHkbIpyijxwyEq9Iq/HuN2FBH9Nqfxy6xMJQ4z8lLhIVTeSaRR2MJQh3dpl4PQUIuReCnHToz/EXaY4xA6HQ1VqeIujXJrGPVmKm/VVOKLeWgelkKF3R2r36dxcEHsUDLQTRn3fd/jaftrwVOaHZkH5KXQ0+e6ZDYZSxW6Q9U4g2eF/0fz4xZvsuiEDas8nX8TKSO6HbKcL7dtUKikocUdSqhQhmxRghbuLRqm4TiFglOQjDCcRXjd44dr9i9mZRzeHUvmREQRodA+Ri/FfBhAY69cL7wCOo3wxF0PtDlkPdKoFmbDOCFMDak+x4tAZGkaFgqrCgsFyfLyrm8tW/AHQzVP4FlBK9rHqtHQGY5DpneEewJGZTgcmkai83jCNtYEOSKjEHK4F6pqfRqId7wGpAKxog1iu8JojtU58VuRq9vVxZEkJMMVB6MQkzmrmZJkWjNXflyEMLtIqrZWUVis/uAFyxujSSihxM50f51/F9nKG8TcdwxJNbo27xqqKg17IJuzUscBEzqVZy5iUPwPbl38xPFozUQ5lFvWZ8DuQ12SijavgC27vThU3koF8Miwlb0PJfGJCe1O0c51PH0zx+fzMOzabPj7AnMB9twLxRCMVlK7IoLvzEJHLfOPL2R9HesKodvcnul84pWSBt7BkBLqG+10gkHVfGQ5jqjrCmVRZyuZRO6ZINB83uiJSlDGEqeT58LtjcI4piZzXKSGY+2/XFk1kwxX4T22BUa07K/t9IdYm+OvI0OdAxIqPfGVmBq2mk3w4KXcBdY2JzkONStV23P5R5ZaGWYUvgF+mG70Kkwvw4SpfjFLJEGR0AGJXX4ICqG384q6soONeeAE8roxiS8GgReG2Bu1psnaFbu/gIF4pO9Tw3ayXsrmvyrHWTQXh2HBMWMnhbhaxi1DQApxPUcWZRAGIm+vIrayUnkHpezSdqnkcswVMAxTE9nFdC9cTI1lDElTnEg19yhhB2tV2xvujzEZJrmRVc10z1/tBkm8nRkFx6h+WYc/jFAYbtwDFkmjVESFbtI0MJNTCqo6xDYZ6xpUOPu6Hn+UbfuH2P8gBIXHqcKmqSanNtSjdJoxgbIGbJjbum3rPj6WcGIcpkW33k3HoTlNL5lKoND/ks7+ETtPKmBGNxMBIMeMLShd6CwZuzi1MnNc1MSnTWbeZiJwQjCRFBsMBib/YaGfml1MD3L8DTDjl7b9jP0iFKpmfSNFCCA9KLydYTrooCp4GjaGt68zjSp8As5TrucWW452YdILunG+W87jeRS5y9uVAMepMct1Xbrt8BqmBIwkBbHGuAyXSmoxMKkZTx7zi97ddrQSl0tbFUfMHjbfHjo4P86xkzL3R20bP2AALnClwpovHTGT+YKyWIR7muZX4u7JuQx2EkuJj8uWpcTgQYpXhju3wea798ZHPnAYa79xqaI+W1+NicpSvA7uOMbZfc6CjTuovhMf5kyLJ9RhLsQSf/ot+Dx0XvcxpDLu0uTFV8HL9AvznVx8w/UmSVgqnNqpW7vNJzPenkllWlF+rIgKNfN7ejRox/FnCzJGUDOSzabG7Wz+PJ+UG0bGgDE5mujjjrY9uz0Lj+vGzuPdqlGAIcandbERA7lBMk1DSn3TenKWSp0wN9VpuiFfas1vO0VrF2EZD2T4lrFmM/Rad1ZxMl/naIrxGvB1+x2IKwcNU8oIlIo1bG+GmcEIEnO9S7MNjJL3z4uj0BDj1mx0JmLSKDO/mJHd6OVzgV/Zwus1+HhvP88mk0nT03lSnsrxzk1KmR+qDd+gvK5d2dYyZThH0X679Uni1bXkYBuS7OLo1qubHqpCcRw6dVk53ptKQzK8iDqpDWGunMdx+ElkhbmFuEQ1cf0/t8tun0BhpQV4qlOp5Xkn8TPgGpV/9nPxyP9CF002jLPK/jqRsTg5n6n+H0JOjmbguSrlb4wzBEEQBEEQBEEQBEEQBEEQBEEQBAFwV2xLB+IALNfxlAy0JU1BwN0AcAM8OxXF14tj7BxaxJ3JjVGUtxO0S1xtgE9tDbrb005P8a+0tDQ8zTVoMr8dnb/caC/nPTboX19pOmNNfG6xVp8FGv42l30F+qra5VW/tf0H7Y3o/Bweg/EoAGEuKu6x1ngEeqs+89rwnn8ND9VL/Ft8cEETZPX6rHXOgtEIFLfgkqt28K6/Q7gf9HYbDOb7fZe9iN+S9MasdToYZBSewiegCcdtD4TCQBMKx71zodAe5VWcoHXaAwVjdxQFmhhKrha0rgJwyKzCliYutsdCYfVaKLzhYx8VXjf32P/d9K65xqMRG+uBFsccUHjJvP6Kwt6LuLg1gnH4okErKuzzCK5tszYMXf1mnNffsfQH7KXV9NllK/HESOOgkL34zbc29C7RhlFfjxUGrNpGGw4wtnqn+5SxhWqTeYNLl7V77LKJDc0rhgojrbkyDsUR7hdfeGnzOrEhY5oP41C4dy+vCgc+dB+EnPpMxyRha5FQyKpaRiHz+5ANqzdcKNT7S4W2Bu+2X+BNv71nJf+P0x700BbZD7qt9cfQWaGQ3WSzBfO1kYZJARVyzdXHwkvhfqF/pPXPc3TEewvbklqQ65xAEARBEARBEARBEARBEARBEARBEARBEARBEH8v/wPJNto6a+MAYQAAAABJRU5ErkJggg==;clipPath=inset(27.78% 27.78% 35.78% 27.78%);" vertex="1" parent="RYZTqpbMyyFkifUs5dxj-164">
          <mxGeometry x="156" y="167" width="29.13" height="23.89" as="geometry" />
        </mxCell>
        <mxCell id="RYZTqpbMyyFkifUs5dxj-167" value="" style="strokeWidth=2;html=1;shape=mxgraph.flowchart.annotation_2;align=left;labelPosition=right;pointerEvents=1;fontSize=8;" vertex="1" parent="RYZTqpbMyyFkifUs5dxj-152">
          <mxGeometry x="260" y="196" width="39" height="130" as="geometry" />
        </mxCell>
        <mxCell id="RYZTqpbMyyFkifUs5dxj-169" value="Server 2" style="text;html=1;strokeColor=none;fillColor=none;align=center;verticalAlign=middle;whiteSpace=wrap;rounded=0;fontSize=8;" vertex="1" parent="RYZTqpbMyyFkifUs5dxj-152">
          <mxGeometry x="350" y="507" width="170" height="30" as="geometry" />
        </mxCell>
        <mxCell id="RYZTqpbMyyFkifUs5dxj-170" value="Server 1&lt;br&gt;" style="text;html=1;strokeColor=none;fillColor=none;align=center;verticalAlign=middle;whiteSpace=wrap;rounded=0;fontSize=8;" vertex="1" parent="RYZTqpbMyyFkifUs5dxj-152">
          <mxGeometry x="380" y="243" width="60" height="30" as="geometry" />
        </mxCell>
        <mxCell id="RYZTqpbMyyFkifUs5dxj-171" value="www.foobar.com&amp;nbsp; server&amp;nbsp;&lt;span style=&quot;font-size: 11px;&quot;&gt;is at ip[&lt;/span&gt;&lt;span style=&quot;font-size: 11px;&quot;&gt;8.8.8.8]&lt;/span&gt;" style="text;html=1;strokeColor=none;fillColor=none;align=center;verticalAlign=middle;whiteSpace=wrap;rounded=0;fontSize=8;" vertex="1" parent="RYZTqpbMyyFkifUs5dxj-152">
          <mxGeometry x="34" y="364" width="196" height="30" as="geometry" />
        </mxCell>
        <mxCell id="RYZTqpbMyyFkifUs5dxj-180" style="edgeStyle=none;rounded=0;orthogonalLoop=1;jettySize=auto;html=1;exitX=1;exitY=0.5;exitDx=0;exitDy=0;entryX=0;entryY=0.75;entryDx=0;entryDy=0;fontSize=8;startArrow=none;startFill=0;endArrow=classic;endFill=1;startSize=8;endSize=8;" edge="1" parent="RYZTqpbMyyFkifUs5dxj-152" source="RYZTqpbMyyFkifUs5dxj-175" target="RYZTqpbMyyFkifUs5dxj-60">
          <mxGeometry relative="1" as="geometry" />
        </mxCell>
        <mxCell id="RYZTqpbMyyFkifUs5dxj-175" value="" style="shape=image;verticalLabelPosition=bottom;labelBackgroundColor=default;verticalAlign=top;aspect=fixed;imageAspect=0;image=https://static.techbast.com/2019/05/diagram.jpg;clipPath=inset(40.86% 46% 41.37% 39%);" vertex="1" parent="RYZTqpbMyyFkifUs5dxj-152">
          <mxGeometry x="299" y="186" width="22.14" height="17.22" as="geometry" />
        </mxCell>
        <mxCell id="RYZTqpbMyyFkifUs5dxj-176" value="" style="shape=image;verticalLabelPosition=bottom;labelBackgroundColor=default;verticalAlign=top;aspect=fixed;imageAspect=0;image=https://static.techbast.com/2019/05/diagram.jpg;clipPath=inset(40.86% 46% 41.37% 39%);" vertex="1" parent="RYZTqpbMyyFkifUs5dxj-152">
          <mxGeometry x="299" y="317" width="21" height="16.33" as="geometry" />
        </mxCell>
        <mxCell id="RYZTqpbMyyFkifUs5dxj-60" value="" style="swimlane;startSize=0;fontSize=11;" vertex="1" parent="RYZTqpbMyyFkifUs5dxj-152">
          <mxGeometry x="342.5" y="25" width="185" height="226" as="geometry" />
        </mxCell>
        <mxCell id="RYZTqpbMyyFkifUs5dxj-73" style="edgeStyle=none;rounded=0;orthogonalLoop=1;jettySize=auto;html=1;exitX=0.5;exitY=1;exitDx=0;exitDy=0;entryX=0.416;entryY=-0.024;entryDx=0;entryDy=0;entryPerimeter=0;fontSize=11;startArrow=classic;startFill=1;endArrow=classic;endFill=1;startSize=8;endSize=8;" edge="1" parent="RYZTqpbMyyFkifUs5dxj-60" source="RYZTqpbMyyFkifUs5dxj-26" target="RYZTqpbMyyFkifUs5dxj-27">
          <mxGeometry relative="1" as="geometry" />
        </mxCell>
        <mxCell id="RYZTqpbMyyFkifUs5dxj-133" style="edgeStyle=none;rounded=0;orthogonalLoop=1;jettySize=auto;html=1;exitX=1;exitY=0.5;exitDx=0;exitDy=0;entryX=0.5;entryY=0;entryDx=0;entryDy=0;fontSize=8;startArrow=classic;startFill=1;endArrow=none;endFill=0;startSize=8;endSize=8;" edge="1" parent="RYZTqpbMyyFkifUs5dxj-60" source="RYZTqpbMyyFkifUs5dxj-26" target="RYZTqpbMyyFkifUs5dxj-29">
          <mxGeometry relative="1" as="geometry">
            <Array as="points">
              <mxPoint x="145" y="45" />
            </Array>
          </mxGeometry>
        </mxCell>
        <mxCell id="RYZTqpbMyyFkifUs5dxj-26" value="" style="swimlane;startSize=0;fontSize=12;" vertex="1" parent="RYZTqpbMyyFkifUs5dxj-60">
          <mxGeometry x="28" y="20" width="39" height="49" as="geometry" />
        </mxCell>
        <mxCell id="RYZTqpbMyyFkifUs5dxj-23" value="" style="shape=image;verticalLabelPosition=bottom;labelBackgroundColor=default;verticalAlign=top;aspect=fixed;imageAspect=0;image=https://miro.medium.com/max/791/0*s8pDWBcAmnmmw7g9.png;clipPath=inset(14.21% 49.33% 46.84% 32.33%);" vertex="1" parent="RYZTqpbMyyFkifUs5dxj-26">
          <mxGeometry x="10.62" y="14.25" width="20.63" height="27.75" as="geometry" />
        </mxCell>
        <mxCell id="RYZTqpbMyyFkifUs5dxj-28" value="" style="swimlane;startSize=0;fontSize=12;" vertex="1" parent="RYZTqpbMyyFkifUs5dxj-60">
          <mxGeometry x="31" y="182" width="51" height="36" as="geometry">
            <mxRectangle x="172" y="456" width="62" height="69" as="alternateBounds" />
          </mxGeometry>
        </mxCell>
        <mxCell id="RYZTqpbMyyFkifUs5dxj-46" value="" style="shape=image;verticalLabelPosition=bottom;labelBackgroundColor=default;verticalAlign=top;aspect=fixed;imageAspect=0;image=https://i.pinimg.com/originals/c4/b5/d5/c4b5d5e672b1904aec4c33902eaa5c5e.jpg;clipPath=inset(58.72% 76% 15.77% 6.33%);" vertex="1" parent="RYZTqpbMyyFkifUs5dxj-28">
          <mxGeometry x="18.25" y="2" width="26.51" height="19" as="geometry" />
        </mxCell>
        <mxCell id="RYZTqpbMyyFkifUs5dxj-48" value="&lt;font style=&quot;font-size: 8px;&quot;&gt;mysql db&lt;/font&gt;" style="text;html=1;strokeColor=none;fillColor=none;align=center;verticalAlign=middle;whiteSpace=wrap;rounded=0;fontSize=12;" vertex="1" parent="RYZTqpbMyyFkifUs5dxj-28">
          <mxGeometry x="8" y="17" width="41" height="15" as="geometry" />
        </mxCell>
        <mxCell id="RYZTqpbMyyFkifUs5dxj-29" value="" style="swimlane;startSize=0;fontSize=12;" vertex="1" parent="RYZTqpbMyyFkifUs5dxj-60">
          <mxGeometry x="119" y="101.5" width="56" height="52.5" as="geometry" />
        </mxCell>
        <mxCell id="RYZTqpbMyyFkifUs5dxj-49" value="&lt;font style=&quot;font-size: 8px;&quot;&gt;Application &lt;br&gt;files&lt;/font&gt;" style="text;html=1;strokeColor=none;fillColor=none;align=center;verticalAlign=middle;whiteSpace=wrap;rounded=0;fontSize=12;" vertex="1" parent="RYZTqpbMyyFkifUs5dxj-29">
          <mxGeometry x="2" y="26" width="58" height="20" as="geometry" />
        </mxCell>
        <mxCell id="RYZTqpbMyyFkifUs5dxj-51" value="" style="shape=image;verticalLabelPosition=bottom;labelBackgroundColor=default;verticalAlign=top;aspect=fixed;imageAspect=0;image=https://www.thebalancemoney.com/thmb/xQXQvmnj-3NeWdelHH4LjgOaIrY=/1500x0/filters:no_upscale():max_bytes(150000):strip_icc()/free-microsoft-curriculum-vitae-cv-templates-for-word-2060343-edit-ac4d9d9794a24063acb2d6fd17ef6ed3.jpg;clipPath=inset(27.5% 20% 58% 72%);" vertex="1" parent="RYZTqpbMyyFkifUs5dxj-29">
          <mxGeometry x="30" y="8.5" width="12" height="14.5" as="geometry" />
        </mxCell>
        <mxCell id="RYZTqpbMyyFkifUs5dxj-50" value="" style="shape=image;verticalLabelPosition=bottom;labelBackgroundColor=default;verticalAlign=top;aspect=fixed;imageAspect=0;image=https://www.thebalancemoney.com/thmb/xQXQvmnj-3NeWdelHH4LjgOaIrY=/1500x0/filters:no_upscale():max_bytes(150000):strip_icc()/free-microsoft-curriculum-vitae-cv-templates-for-word-2060343-edit-ac4d9d9794a24063acb2d6fd17ef6ed3.jpg;clipPath=inset(27.5% 20% 58% 72%);" vertex="1" parent="RYZTqpbMyyFkifUs5dxj-29">
          <mxGeometry x="19" y="8.5" width="11.18" height="13.5" as="geometry" />
        </mxCell>
        <mxCell id="RYZTqpbMyyFkifUs5dxj-128" style="edgeStyle=none;rounded=0;orthogonalLoop=1;jettySize=auto;html=1;exitX=0.5;exitY=1;exitDx=0;exitDy=0;entryX=0;entryY=0;entryDx=0;entryDy=0;fontSize=8;startArrow=classic;startFill=1;endArrow=classic;endFill=1;startSize=8;endSize=8;" edge="1" parent="RYZTqpbMyyFkifUs5dxj-60" source="RYZTqpbMyyFkifUs5dxj-27" target="RYZTqpbMyyFkifUs5dxj-46">
          <mxGeometry relative="1" as="geometry" />
        </mxCell>
        <mxCell id="RYZTqpbMyyFkifUs5dxj-27" value="" style="swimlane;startSize=0;fontSize=12;" vertex="1" parent="RYZTqpbMyyFkifUs5dxj-60">
          <mxGeometry x="31" y="101.5" width="39" height="50" as="geometry" />
        </mxCell>
        <mxCell id="RYZTqpbMyyFkifUs5dxj-40" value="" style="shape=image;verticalLabelPosition=bottom;labelBackgroundColor=default;verticalAlign=top;aspect=fixed;imageAspect=0;image=https://miro.medium.com/max/791/0*s8pDWBcAmnmmw7g9.png;clipPath=inset(27.37% 10.67% 43.16% 67%);" vertex="1" parent="RYZTqpbMyyFkifUs5dxj-27">
          <mxGeometry x="5.69" y="15.46" width="31.75" height="26.54" as="geometry" />
        </mxCell>
        <mxCell id="RYZTqpbMyyFkifUs5dxj-41" style="edgeStyle=none;rounded=0;orthogonalLoop=1;jettySize=auto;html=1;exitX=1;exitY=1;exitDx=0;exitDy=0;fontSize=12;startArrow=classic;startFill=1;endArrow=none;endFill=0;startSize=8;endSize=8;" edge="1" parent="RYZTqpbMyyFkifUs5dxj-27" source="RYZTqpbMyyFkifUs5dxj-40" target="RYZTqpbMyyFkifUs5dxj-40">
          <mxGeometry relative="1" as="geometry" />
        </mxCell>
        <mxCell id="RYZTqpbMyyFkifUs5dxj-185" value="" style="shape=image;verticalLabelPosition=bottom;labelBackgroundColor=default;verticalAlign=top;aspect=fixed;imageAspect=0;image=data:image/png,iVBORw0KGgoAAAANSUhEUgAAAOEAAADhCAMAAAAJbSJIAAAA1VBMVEX///8aMT8kNkL//v////38/PwAFCbj6uspMjkZMkEAAADR09QADh0AHC68yMkXLz2GiIk8Q0gPKjcEIS0AIzK7vr8jNkQAGCvk5eYAEyBeaXGtra6ioqINLTs6P0Lz8/OUlJRsbGzKyso5Q00AGylcXFwqKioAABIbKTIAABjh4eGysrIRERFISEh+fn4ACh1SUlIfHx9vb28XFxc2NjZPWFypt7vo8PNvdXoiKjg1OkNbYGZ+hokAAB2MlZqXoaYADRZFTFIDJC04PUofLDWSm6BBQUEYasaRAAAJEElEQVR4nO2cj1ui3BLHD8JRgVwUhDDYxQxL0TTLyk3Xrnur//9PujMHMDSv1vY+ifvO59lVO0KdrzNnZs6PYowgCIIgCIIgCIIgCIIgCIIgCIIgCIIgCIIgCIIgCIIgCIIgCIIgCIIgCIIgCIIgCILYhsJk/jn2rWAHCnM75U/xdLtvDbvQj4zPYe1bwS70I0mgqtLHSG5QTXCEXAMK1T+RqKY6D0EhUC/+CQbcaRyAQrBG/e6+9HHuTwzhpTlHKKx8+6N7T74fkkL5ozcqpDAv/FsVvqMYO0iFsqLIIM2e1H7+fJj690KGLLPN+UA5QIWCXqdomIZqfK9fzLjCFFTI3BUiIfnwFMaGmg2NZd1SP0qclV80MhQ1riiHqBCAjgc1U5WMeh3MKDVsFrfzMFtrq784O1iFMAyDs3pxOn+cdCogEKXAO7x2luVJmPbwFAo/rd2xYFLCN+Rnm7lHkbIpyijxwyEq9Iq/HuN2FBH9Nqfxy6xMJQ4z8lLhIVTeSaRR2MJQh3dpl4PQUIuReCnHToz/EXaY4xA6HQ1VqeIujXJrGPVmKm/VVOKLeWgelkKF3R2r36dxcEHsUDLQTRn3fd/jaftrwVOaHZkH5KXQ0+e6ZDYZSxW6Q9U4g2eF/0fz4xZvsuiEDas8nX8TKSO6HbKcL7dtUKikocUdSqhQhmxRghbuLRqm4TiFglOQjDCcRXjd44dr9i9mZRzeHUvmREQRodA+Ri/FfBhAY69cL7wCOo3wxF0PtDlkPdKoFmbDOCFMDak+x4tAZGkaFgqrCgsFyfLyrm8tW/AHQzVP4FlBK9rHqtHQGY5DpneEewJGZTgcmkai83jCNtYEOSKjEHK4F6pqfRqId7wGpAKxog1iu8JojtU58VuRq9vVxZEkJMMVB6MQkzmrmZJkWjNXflyEMLtIqrZWUVis/uAFyxujSSihxM50f51/F9nKG8TcdwxJNbo27xqqKg17IJuzUscBEzqVZy5iUPwPbl38xPFozUQ5lFvWZ8DuQ12SijavgC27vThU3koF8Miwlb0PJfGJCe1O0c51PH0zx+fzMOzabPj7AnMB9twLxRCMVlK7IoLvzEJHLfOPL2R9HesKodvcnul84pWSBt7BkBLqG+10gkHVfGQ5jqjrCmVRZyuZRO6ZINB83uiJSlDGEqeT58LtjcI4piZzXKSGY+2/XFk1kwxX4T22BUa07K/t9IdYm+OvI0OdAxIqPfGVmBq2mk3w4KXcBdY2JzkONStV23P5R5ZaGWYUvgF+mG70Kkwvw4SpfjFLJEGR0AGJXX4ICqG384q6soONeeAE8roxiS8GgReG2Bu1psnaFbu/gIF4pO9Tw3ayXsrmvyrHWTQXh2HBMWMnhbhaxi1DQApxPUcWZRAGIm+vIrayUnkHpezSdqnkcswVMAxTE9nFdC9cTI1lDElTnEg19yhhB2tV2xvujzEZJrmRVc10z1/tBkm8nRkFx6h+WYc/jFAYbtwDFkmjVESFbtI0MJNTCqo6xDYZ6xpUOPu6Hn+UbfuH2P8gBIXHqcKmqSanNtSjdJoxgbIGbJjbum3rPj6WcGIcpkW33k3HoTlNL5lKoND/ks7+ETtPKmBGNxMBIMeMLShd6CwZuzi1MnNc1MSnTWbeZiJwQjCRFBsMBib/YaGfml1MD3L8DTDjl7b9jP0iFKpmfSNFCCA9KLydYTrooCp4GjaGt68zjSp8As5TrucWW452YdILunG+W87jeRS5y9uVAMepMct1Xbrt8BqmBIwkBbHGuAyXSmoxMKkZTx7zi97ddrQSl0tbFUfMHjbfHjo4P86xkzL3R20bP2AALnClwpovHTGT+YKyWIR7muZX4u7JuQx2EkuJj8uWpcTgQYpXhju3wea798ZHPnAYa79xqaI+W1+NicpSvA7uOMbZfc6CjTuovhMf5kyLJ9RhLsQSf/ot+Dx0XvcxpDLu0uTFV8HL9AvznVx8w/UmSVgqnNqpW7vNJzPenkllWlF+rIgKNfN7ejRox/FnCzJGUDOSzabG7Wz+PJ+UG0bGgDE5mujjjrY9uz0Lj+vGzuPdqlGAIcandbERA7lBMk1DSn3TenKWSp0wN9VpuiFfas1vO0VrF2EZD2T4lrFmM/Rad1ZxMl/naIrxGvB1+x2IKwcNU8oIlIo1bG+GmcEIEnO9S7MNjJL3z4uj0BDj1mx0JmLSKDO/mJHd6OVzgV/Zwus1+HhvP88mk0nT03lSnsrxzk1KmR+qDd+gvK5d2dYyZThH0X679Uni1bXkYBuS7OLo1qubHqpCcRw6dVk53ptKQzK8iDqpDWGunMdx+ElkhbmFuEQ1cf0/t8tun0BhpQV4qlOp5Xkn8TPgGpV/9nPxyP9CF002jLPK/jqRsTg5n6n+H0JOjmbguSrlb4wzBEEQBEEQBEEQBEEQBEEQBEEQBAFwV2xLB+IALNfxlAy0JU1BwN0AcAM8OxXF14tj7BxaxJ3JjVGUtxO0S1xtgE9tDbrb005P8a+0tDQ8zTVoMr8dnb/caC/nPTboX19pOmNNfG6xVp8FGv42l30F+qra5VW/tf0H7Y3o/Bweg/EoAGEuKu6x1ngEeqs+89rwnn8ND9VL/Ft8cEETZPX6rHXOgtEIFLfgkqt28K6/Q7gf9HYbDOb7fZe9iN+S9MasdToYZBSewiegCcdtD4TCQBMKx71zodAe5VWcoHXaAwVjdxQFmhhKrha0rgJwyKzCliYutsdCYfVaKLzhYx8VXjf32P/d9K65xqMRG+uBFsccUHjJvP6Kwt6LuLg1gnH4okErKuzzCK5tszYMXf1mnNffsfQH7KXV9NllK/HESOOgkL34zbc29C7RhlFfjxUGrNpGGw4wtnqn+5SxhWqTeYNLl7V77LKJDc0rhgojrbkyDsUR7hdfeGnzOrEhY5oP41C4dy+vCgc+dB+EnPpMxyRha5FQyKpaRiHz+5ANqzdcKNT7S4W2Bu+2X+BNv71nJf+P0x700BbZD7qt9cfQWaGQ3WSzBfO1kYZJARVyzdXHwkvhfqF/pPXPc3TEewvbklqQ65xAEARBEARBEARBEARBEARBEARBEARBEARBEH8v/wPJNto6a+MAYQAAAABJRU5ErkJggg==;clipPath=inset(27.78% 27.78% 35.78% 27.78%);" vertex="1" parent="RYZTqpbMyyFkifUs5dxj-60">
          <mxGeometry x="149.5" y="194.11" width="29.13" height="23.89" as="geometry" />
        </mxCell>
        <mxCell id="RYZTqpbMyyFkifUs5dxj-184" value="" style="shape=image;verticalLabelPosition=bottom;labelBackgroundColor=default;verticalAlign=top;aspect=fixed;imageAspect=0;image=data:image/png,iVBORw0KGgoAAAANSUhEUgAAAOEAAADhCAMAAAAJbSJIAAAA1VBMVEX///8aMT8kNkL//v////38/PwAFCbj6uspMjkZMkEAAADR09QADh0AHC68yMkXLz2GiIk8Q0gPKjcEIS0AIzK7vr8jNkQAGCvk5eYAEyBeaXGtra6ioqINLTs6P0Lz8/OUlJRsbGzKyso5Q00AGylcXFwqKioAABIbKTIAABjh4eGysrIRERFISEh+fn4ACh1SUlIfHx9vb28XFxc2NjZPWFypt7vo8PNvdXoiKjg1OkNbYGZ+hokAAB2MlZqXoaYADRZFTFIDJC04PUofLDWSm6BBQUEYasaRAAAJEElEQVR4nO2cj1ui3BLHD8JRgVwUhDDYxQxL0TTLyk3Xrnur//9PujMHMDSv1vY+ifvO59lVO0KdrzNnZs6PYowgCIIgCIIgCIIgCIIgCIIgCIIgCIIgCIIgCIIgCIIgCIIgCIIgCIIgCIIgCIIgCILYhsJk/jn2rWAHCnM75U/xdLtvDbvQj4zPYe1bwS70I0mgqtLHSG5QTXCEXAMK1T+RqKY6D0EhUC/+CQbcaRyAQrBG/e6+9HHuTwzhpTlHKKx8+6N7T74fkkL5ozcqpDAv/FsVvqMYO0iFsqLIIM2e1H7+fJj690KGLLPN+UA5QIWCXqdomIZqfK9fzLjCFFTI3BUiIfnwFMaGmg2NZd1SP0qclV80MhQ1riiHqBCAjgc1U5WMeh3MKDVsFrfzMFtrq784O1iFMAyDs3pxOn+cdCogEKXAO7x2luVJmPbwFAo/rd2xYFLCN+Rnm7lHkbIpyijxwyEq9Iq/HuN2FBH9Nqfxy6xMJQ4z8lLhIVTeSaRR2MJQh3dpl4PQUIuReCnHToz/EXaY4xA6HQ1VqeIujXJrGPVmKm/VVOKLeWgelkKF3R2r36dxcEHsUDLQTRn3fd/jaftrwVOaHZkH5KXQ0+e6ZDYZSxW6Q9U4g2eF/0fz4xZvsuiEDas8nX8TKSO6HbKcL7dtUKikocUdSqhQhmxRghbuLRqm4TiFglOQjDCcRXjd44dr9i9mZRzeHUvmREQRodA+Ri/FfBhAY69cL7wCOo3wxF0PtDlkPdKoFmbDOCFMDak+x4tAZGkaFgqrCgsFyfLyrm8tW/AHQzVP4FlBK9rHqtHQGY5DpneEewJGZTgcmkai83jCNtYEOSKjEHK4F6pqfRqId7wGpAKxog1iu8JojtU58VuRq9vVxZEkJMMVB6MQkzmrmZJkWjNXflyEMLtIqrZWUVis/uAFyxujSSihxM50f51/F9nKG8TcdwxJNbo27xqqKg17IJuzUscBEzqVZy5iUPwPbl38xPFozUQ5lFvWZ8DuQ12SijavgC27vThU3koF8Miwlb0PJfGJCe1O0c51PH0zx+fzMOzabPj7AnMB9twLxRCMVlK7IoLvzEJHLfOPL2R9HesKodvcnul84pWSBt7BkBLqG+10gkHVfGQ5jqjrCmVRZyuZRO6ZINB83uiJSlDGEqeT58LtjcI4piZzXKSGY+2/XFk1kwxX4T22BUa07K/t9IdYm+OvI0OdAxIqPfGVmBq2mk3w4KXcBdY2JzkONStV23P5R5ZaGWYUvgF+mG70Kkwvw4SpfjFLJEGR0AGJXX4ICqG384q6soONeeAE8roxiS8GgReG2Bu1psnaFbu/gIF4pO9Tw3ayXsrmvyrHWTQXh2HBMWMnhbhaxi1DQApxPUcWZRAGIm+vIrayUnkHpezSdqnkcswVMAxTE9nFdC9cTI1lDElTnEg19yhhB2tV2xvujzEZJrmRVc10z1/tBkm8nRkFx6h+WYc/jFAYbtwDFkmjVESFbtI0MJNTCqo6xDYZ6xpUOPu6Hn+UbfuH2P8gBIXHqcKmqSanNtSjdJoxgbIGbJjbum3rPj6WcGIcpkW33k3HoTlNL5lKoND/ks7+ETtPKmBGNxMBIMeMLShd6CwZuzi1MnNc1MSnTWbeZiJwQjCRFBsMBib/YaGfml1MD3L8DTDjl7b9jP0iFKpmfSNFCCA9KLydYTrooCp4GjaGt68zjSp8As5TrucWW452YdILunG+W87jeRS5y9uVAMepMct1Xbrt8BqmBIwkBbHGuAyXSmoxMKkZTx7zi97ddrQSl0tbFUfMHjbfHjo4P86xkzL3R20bP2AALnClwpovHTGT+YKyWIR7muZX4u7JuQx2EkuJj8uWpcTgQYpXhju3wea798ZHPnAYa79xqaI+W1+NicpSvA7uOMbZfc6CjTuovhMf5kyLJ9RhLsQSf/ot+Dx0XvcxpDLu0uTFV8HL9AvznVx8w/UmSVgqnNqpW7vNJzPenkllWlF+rIgKNfN7ejRox/FnCzJGUDOSzabG7Wz+PJ+UG0bGgDE5mujjjrY9uz0Lj+vGzuPdqlGAIcandbERA7lBMk1DSn3TenKWSp0wN9VpuiFfas1vO0VrF2EZD2T4lrFmM/Rad1ZxMl/naIrxGvB1+x2IKwcNU8oIlIo1bG+GmcEIEnO9S7MNjJL3z4uj0BDj1mx0JmLSKDO/mJHd6OVzgV/Zwus1+HhvP88mk0nT03lSnsrxzk1KmR+qDd+gvK5d2dYyZThH0X679Uni1bXkYBuS7OLo1qubHqpCcRw6dVk53ptKQzK8iDqpDWGunMdx+ElkhbmFuEQ1cf0/t8tun0BhpQV4qlOp5Xkn8TPgGpV/9nPxyP9CF002jLPK/jqRsTg5n6n+H0JOjmbguSrlb4wzBEEQBEEQBEEQBEEQBEEQBEEQBAFwV2xLB+IALNfxlAy0JU1BwN0AcAM8OxXF14tj7BxaxJ3JjVGUtxO0S1xtgE9tDbrb005P8a+0tDQ8zTVoMr8dnb/caC/nPTboX19pOmNNfG6xVp8FGv42l30F+qra5VW/tf0H7Y3o/Bweg/EoAGEuKu6x1ngEeqs+89rwnn8ND9VL/Ft8cEETZPX6rHXOgtEIFLfgkqt28K6/Q7gf9HYbDOb7fZe9iN+S9MasdToYZBSewiegCcdtD4TCQBMKx71zodAe5VWcoHXaAwVjdxQFmhhKrha0rgJwyKzCliYutsdCYfVaKLzhYx8VXjf32P/d9K65xqMRG+uBFsccUHjJvP6Kwt6LuLg1gnH4okErKuzzCK5tszYMXf1mnNffsfQH7KXV9NllK/HESOOgkL34zbc29C7RhlFfjxUGrNpGGw4wtnqn+5SxhWqTeYNLl7V77LKJDc0rhgojrbkyDsUR7hdfeGnzOrEhY5oP41C4dy+vCgc+dB+EnPpMxyRha5FQyKpaRiHz+5ANqzdcKNT7S4W2Bu+2X+BNv71nJf+P0x700BbZD7qt9cfQWaGQ3WSzBfO1kYZJARVyzdXHwkvhfqF/pPXPc3TEewvbklqQ65xAEARBEARBEARBEARBEARBEARBEARBEARBEH8v/wPJNto6a+MAYQAAAABJRU5ErkJggg==;clipPath=inset(27.78% 27.78% 35.78% 27.78%);" vertex="1" parent="RYZTqpbMyyFkifUs5dxj-152">
          <mxGeometry x="496" y="475" width="29.13" height="23.89" as="geometry" />
        </mxCell>
        <mxCell id="RYZTqpbMyyFkifUs5dxj-203" style="edgeStyle=none;rounded=0;orthogonalLoop=1;jettySize=auto;html=1;exitX=1;exitY=0.25;exitDx=0;exitDy=0;entryX=0.02;entryY=0.398;entryDx=0;entryDy=0;entryPerimeter=0;fontSize=8;startArrow=none;startFill=0;endArrow=classic;endFill=1;startSize=8;endSize=8;" edge="1" parent="RYZTqpbMyyFkifUs5dxj-152" source="RYZTqpbMyyFkifUs5dxj-174" target="RYZTqpbMyyFkifUs5dxj-164">
          <mxGeometry relative="1" as="geometry" />
        </mxCell>
        <mxCell id="RYZTqpbMyyFkifUs5dxj-204" style="edgeStyle=none;rounded=0;orthogonalLoop=1;jettySize=auto;html=1;exitX=1;exitY=0.75;exitDx=0;exitDy=0;fontSize=8;startArrow=none;startFill=0;endArrow=classic;endFill=1;startSize=8;endSize=8;" edge="1" parent="RYZTqpbMyyFkifUs5dxj-152" source="RYZTqpbMyyFkifUs5dxj-174" target="RYZTqpbMyyFkifUs5dxj-164">
          <mxGeometry relative="1" as="geometry" />
        </mxCell>
        <mxCell id="RYZTqpbMyyFkifUs5dxj-174" value="" style="shape=image;verticalLabelPosition=bottom;labelBackgroundColor=default;verticalAlign=top;aspect=fixed;imageAspect=0;image=https://static.techbast.com/2019/05/diagram.jpg;clipPath=inset(40.86% 46% 41.37% 39%);" vertex="1" parent="RYZTqpbMyyFkifUs5dxj-152">
          <mxGeometry x="9" y="238" width="29.57" height="23" as="geometry" />
        </mxCell>
        <mxCell id="RYZTqpbMyyFkifUs5dxj-135" value="" style="swimlane;startSize=0;fontSize=11;" vertex="1" parent="RYZTqpbMyyFkifUs5dxj-152">
          <mxGeometry x="347" y="278" width="185" height="226" as="geometry" />
        </mxCell>
        <mxCell id="RYZTqpbMyyFkifUs5dxj-136" style="edgeStyle=none;rounded=0;orthogonalLoop=1;jettySize=auto;html=1;exitX=0.5;exitY=1;exitDx=0;exitDy=0;entryX=0.416;entryY=-0.024;entryDx=0;entryDy=0;entryPerimeter=0;fontSize=11;startArrow=classic;startFill=1;endArrow=classic;endFill=1;startSize=8;endSize=8;" edge="1" parent="RYZTqpbMyyFkifUs5dxj-135" source="RYZTqpbMyyFkifUs5dxj-138" target="RYZTqpbMyyFkifUs5dxj-149">
          <mxGeometry relative="1" as="geometry" />
        </mxCell>
        <mxCell id="RYZTqpbMyyFkifUs5dxj-137" style="edgeStyle=none;rounded=0;orthogonalLoop=1;jettySize=auto;html=1;exitX=1;exitY=0.5;exitDx=0;exitDy=0;entryX=0.5;entryY=0;entryDx=0;entryDy=0;fontSize=8;startArrow=classic;startFill=1;endArrow=none;endFill=0;startSize=8;endSize=8;" edge="1" parent="RYZTqpbMyyFkifUs5dxj-135" source="RYZTqpbMyyFkifUs5dxj-138" target="RYZTqpbMyyFkifUs5dxj-144">
          <mxGeometry relative="1" as="geometry">
            <Array as="points">
              <mxPoint x="145" y="45" />
            </Array>
          </mxGeometry>
        </mxCell>
        <mxCell id="RYZTqpbMyyFkifUs5dxj-138" value="" style="swimlane;startSize=0;fontSize=12;" vertex="1" parent="RYZTqpbMyyFkifUs5dxj-135">
          <mxGeometry x="28" y="20" width="39" height="49" as="geometry" />
        </mxCell>
        <mxCell id="RYZTqpbMyyFkifUs5dxj-139" value="" style="shape=image;verticalLabelPosition=bottom;labelBackgroundColor=default;verticalAlign=top;aspect=fixed;imageAspect=0;image=https://miro.medium.com/max/791/0*s8pDWBcAmnmmw7g9.png;clipPath=inset(14.21% 49.33% 46.84% 32.33%);" vertex="1" parent="RYZTqpbMyyFkifUs5dxj-138">
          <mxGeometry x="10.62" y="14.25" width="20.63" height="27.75" as="geometry" />
        </mxCell>
        <mxCell id="RYZTqpbMyyFkifUs5dxj-141" value="" style="swimlane;startSize=0;fontSize=12;" vertex="1" parent="RYZTqpbMyyFkifUs5dxj-135">
          <mxGeometry x="31" y="182" width="51" height="36" as="geometry">
            <mxRectangle x="172" y="456" width="62" height="69" as="alternateBounds" />
          </mxGeometry>
        </mxCell>
        <mxCell id="RYZTqpbMyyFkifUs5dxj-142" value="" style="shape=image;verticalLabelPosition=bottom;labelBackgroundColor=default;verticalAlign=top;aspect=fixed;imageAspect=0;image=https://i.pinimg.com/originals/c4/b5/d5/c4b5d5e672b1904aec4c33902eaa5c5e.jpg;clipPath=inset(58.72% 76% 15.77% 6.33%);" vertex="1" parent="RYZTqpbMyyFkifUs5dxj-141">
          <mxGeometry x="18.25" y="2" width="26.51" height="19" as="geometry" />
        </mxCell>
        <mxCell id="RYZTqpbMyyFkifUs5dxj-143" value="&lt;font style=&quot;font-size: 8px;&quot;&gt;mysql db&lt;/font&gt;" style="text;html=1;strokeColor=none;fillColor=none;align=center;verticalAlign=middle;whiteSpace=wrap;rounded=0;fontSize=12;" vertex="1" parent="RYZTqpbMyyFkifUs5dxj-141">
          <mxGeometry x="8" y="17" width="41" height="15" as="geometry" />
        </mxCell>
        <mxCell id="RYZTqpbMyyFkifUs5dxj-144" value="" style="swimlane;startSize=0;fontSize=12;" vertex="1" parent="RYZTqpbMyyFkifUs5dxj-135">
          <mxGeometry x="119" y="101.5" width="56" height="52.5" as="geometry" />
        </mxCell>
        <mxCell id="RYZTqpbMyyFkifUs5dxj-145" value="&lt;font style=&quot;font-size: 8px;&quot;&gt;Application &lt;br&gt;files&lt;/font&gt;" style="text;html=1;strokeColor=none;fillColor=none;align=center;verticalAlign=middle;whiteSpace=wrap;rounded=0;fontSize=12;" vertex="1" parent="RYZTqpbMyyFkifUs5dxj-144">
          <mxGeometry x="2" y="26" width="58" height="20" as="geometry" />
        </mxCell>
        <mxCell id="RYZTqpbMyyFkifUs5dxj-146" value="" style="shape=image;verticalLabelPosition=bottom;labelBackgroundColor=default;verticalAlign=top;aspect=fixed;imageAspect=0;image=https://www.thebalancemoney.com/thmb/xQXQvmnj-3NeWdelHH4LjgOaIrY=/1500x0/filters:no_upscale():max_bytes(150000):strip_icc()/free-microsoft-curriculum-vitae-cv-templates-for-word-2060343-edit-ac4d9d9794a24063acb2d6fd17ef6ed3.jpg;clipPath=inset(27.5% 20% 58% 72%);" vertex="1" parent="RYZTqpbMyyFkifUs5dxj-144">
          <mxGeometry x="30" y="8.5" width="12" height="14.5" as="geometry" />
        </mxCell>
        <mxCell id="RYZTqpbMyyFkifUs5dxj-147" value="" style="shape=image;verticalLabelPosition=bottom;labelBackgroundColor=default;verticalAlign=top;aspect=fixed;imageAspect=0;image=https://www.thebalancemoney.com/thmb/xQXQvmnj-3NeWdelHH4LjgOaIrY=/1500x0/filters:no_upscale():max_bytes(150000):strip_icc()/free-microsoft-curriculum-vitae-cv-templates-for-word-2060343-edit-ac4d9d9794a24063acb2d6fd17ef6ed3.jpg;clipPath=inset(27.5% 20% 58% 72%);" vertex="1" parent="RYZTqpbMyyFkifUs5dxj-144">
          <mxGeometry x="19" y="8.5" width="11.18" height="13.5" as="geometry" />
        </mxCell>
        <mxCell id="RYZTqpbMyyFkifUs5dxj-148" style="edgeStyle=none;rounded=0;orthogonalLoop=1;jettySize=auto;html=1;exitX=0.5;exitY=1;exitDx=0;exitDy=0;entryX=0;entryY=0;entryDx=0;entryDy=0;fontSize=8;startArrow=classic;startFill=1;endArrow=classic;endFill=1;startSize=8;endSize=8;" edge="1" parent="RYZTqpbMyyFkifUs5dxj-135" source="RYZTqpbMyyFkifUs5dxj-149" target="RYZTqpbMyyFkifUs5dxj-142">
          <mxGeometry relative="1" as="geometry" />
        </mxCell>
        <mxCell id="RYZTqpbMyyFkifUs5dxj-149" value="" style="swimlane;startSize=0;fontSize=12;" vertex="1" parent="RYZTqpbMyyFkifUs5dxj-135">
          <mxGeometry x="31" y="101.5" width="39" height="50" as="geometry" />
        </mxCell>
        <mxCell id="RYZTqpbMyyFkifUs5dxj-150" value="" style="shape=image;verticalLabelPosition=bottom;labelBackgroundColor=default;verticalAlign=top;aspect=fixed;imageAspect=0;image=https://miro.medium.com/max/791/0*s8pDWBcAmnmmw7g9.png;clipPath=inset(27.37% 10.67% 43.16% 67%);" vertex="1" parent="RYZTqpbMyyFkifUs5dxj-149">
          <mxGeometry x="5.69" y="15.46" width="31.75" height="26.54" as="geometry" />
        </mxCell>
        <mxCell id="RYZTqpbMyyFkifUs5dxj-151" style="edgeStyle=none;rounded=0;orthogonalLoop=1;jettySize=auto;html=1;exitX=1;exitY=1;exitDx=0;exitDy=0;fontSize=12;startArrow=classic;startFill=1;endArrow=none;endFill=0;startSize=8;endSize=8;" edge="1" parent="RYZTqpbMyyFkifUs5dxj-149" source="RYZTqpbMyyFkifUs5dxj-150" target="RYZTqpbMyyFkifUs5dxj-150">
          <mxGeometry relative="1" as="geometry" />
        </mxCell>
        <mxCell id="RYZTqpbMyyFkifUs5dxj-178" style="edgeStyle=none;rounded=0;orthogonalLoop=1;jettySize=auto;html=1;exitX=1;exitY=0.5;exitDx=0;exitDy=0;entryX=0.009;entryY=0.204;entryDx=0;entryDy=0;entryPerimeter=0;fontSize=8;startArrow=none;startFill=0;endArrow=classic;endFill=1;startSize=8;endSize=8;" edge="1" parent="RYZTqpbMyyFkifUs5dxj-152" source="RYZTqpbMyyFkifUs5dxj-176" target="RYZTqpbMyyFkifUs5dxj-135">
          <mxGeometry relative="1" as="geometry" />
        </mxCell>
        <mxCell id="RYZTqpbMyyFkifUs5dxj-201" style="edgeStyle=none;rounded=0;orthogonalLoop=1;jettySize=auto;html=1;exitX=1.012;exitY=0.333;exitDx=0;exitDy=0;fontSize=8;startArrow=none;startFill=0;endArrow=none;endFill=0;startSize=8;endSize=8;exitPerimeter=0;" edge="1" parent="1" source="RYZTqpbMyyFkifUs5dxj-192">
          <mxGeometry relative="1" as="geometry">
            <mxPoint x="124" y="368" as="targetPoint" />
          </mxGeometry>
        </mxCell>
        <mxCell id="RYZTqpbMyyFkifUs5dxj-202" style="edgeStyle=none;rounded=0;orthogonalLoop=1;jettySize=auto;html=1;exitX=0.993;exitY=0.429;exitDx=0;exitDy=0;fontSize=8;startArrow=none;startFill=0;endArrow=none;endFill=0;startSize=8;endSize=8;exitPerimeter=0;" edge="1" parent="1" source="RYZTqpbMyyFkifUs5dxj-192">
          <mxGeometry relative="1" as="geometry">
            <mxPoint x="129" y="377" as="targetPoint" />
          </mxGeometry>
        </mxCell>
        <mxCell id="RYZTqpbMyyFkifUs5dxj-192" value="" style="shape=image;verticalLabelPosition=bottom;labelBackgroundColor=default;verticalAlign=top;aspect=fixed;imageAspect=0;image=data:image/png,iVBORw0KGgoAAAANSUhEUgAAAOEAAADhCAMAAAAJbSJIAAABI1BMVEVPum/////mTDxMgFbwxBnAOivs8PFNuW5MfVVVvXRKuWxPvXB4yZBMflVOqWhOomVPsWtMiFny8vbj7epAt2XV591Nm2LpSTu9LBjwyBe9KROHhFJ5mFzEMifK5NXjrqnmRT3szMpDv3He6+WPzqJev3tNkl7wwBrlQT5Njlz2+/fi8+eLz56b0qy53cXtQjjnXThvw4h+yJSs2LvdUz9nrGjrjyvqgC/nVDrpdjLXWULtnybJZkjM6dRlwYC/38qk1bSlhVZ0pGWtflONll6zeVDoazW/b0zusCDtpSTUXUSRk13vtR9rqWfRQjPMZVu6dE6ci1noZDbriizDakp6oWOajVmnf1KChlKajWWRo3XERzjQc2r03tzeopzYkInovrq1WgoQAAAO60lEQVR4nO2d+UMaSRbHG3AoqAbFphHNRpY04oEcAmoSo2hM1MQYJ+NMkt3NzGz+/79iq6/qrqPvFgqX7y+JXWVTn351vVevUco8dUmzbsCja0E4/1oQzr8WhPOvBeH8a0E4/1oQzr/+rwg7Z73RpDj/mox6Zx0O4X63qEIIwfwLUajF7j5F2OkiOOnpCGFuddyE+8UnxacLwOK+Q3gG4awb9AiC8Mwm3FefmgFNAXXfJOwUnyYgQix2DMLuU+yipmBXJ9x/cpOMIwD3EeHo6ZoQGXGUkToe04y+cqLlM+AOwK8aKpt19wBqRzpTOQVQhe1JaTRsS6pPIwFUQXtYKk3akLfcQGlYKs66g6hn0hbbBqgOL2rVvKIo+VZ/5LlWQjgat6p6rWptPFLparDUUpQq5/ZTFdySSnQTgDps5JW8LaW1xe3HQO0iAlxLqZXIaqBtFsx4mMOSNKGaD2HfwbMYJxw7t2t0tQbRJdWxWV6bLSGY0FfYlusa0YMVlqpMNfJJqA3zakua9WxDCrZbLB9qfJdEhCVerXzehajWzEtVsXZMAPIsqGvo7mywza+Ubzk4ghKq525AxfVD1bVqAOB6DsQTURr4QYhJCEvO5Fht9MfnLefnsdNPYc9dbdxvOGNSwZtcMQnt2QGpV1RVqEojx1ptu6WgWMV8W2hLoKrFLczYsh+EkISOCVtts1OiXYu9dihj2zrYhKhPWtXUov0ksBHFJBzbhM6cCNSGdbFmj0Rs6ZqzH4WSNQcr55YRRSREE4jVyi3X2gDwvDk0mwok+zm451c4sq5WrfVPSEKbhWyU2re5TSDMUiPWSJvI5haScGg2XekTTbeJlAuLcMv6uUfsx9QL6/JIXEIaxRIYWsaxwO3RSu2pYVchTC0kYZdrHNC2Foe+1XSbcEgSluaA0O6lY9IdsNqKx2GPRLFkj2JF5HE44U4hlnUUe23ApiaHq6Qa5PiqkIR4rzKkjDiq5at9u6X4QVQpvwhutfKtMV41BSSU7MVdaVBePYRt18GGaj0I91bVrCa1JVxNSEJ7HdDbTjXLHU3DG7k8Hd9wB92EJMSzJhpNRRV6hRLtGclYVzyrCUkowQvc9up4NEFeAzeYqJ7n7WqtXqltVGMrCUkIoG1E07Ot1vpdyEba4CTvVFOMaiWVriYmoasDYgCl32bsqPaYavlxkbuKikboTDau1ufHLCIdcdT7dY8wo6iE7giF0/gaHZwHTFA1b7iG7hlXVEK0vOc59qFjwgB1VLZaTRJ8tTAF2+cMo9Ji2qkOGwyj0nDtC8Ql1A8uzluKQrQfbXPoalAdNaqoElFtLHg00RZUpVKvf95wH71wz6iKo4v+ea3qqjYRO5roCEB9HVfbY2weep/trjbBgWTH1qITWgLqBIcJe6wRnWojvN8bihxNlHSj0Idt2KVyj0QmRUy1Qx3Y4RCTEMBJd0J7TjhMjE8aIRx26Y0O3ua0RCYEbbQAKA2qSdhrtKPZcKjPtH0SEajYfRY3XipBg8V1fmRepaKHABiHFLT/i8OqAkcTcXiCCqINyRGGialojn1Z5FgbFfG0BCxfyT6RwNFEMgMAR1t7AhPaEc8LfxtSwW272hzY0O6l+PjIFD0O8c/Ug5iHcehxMkPNpXj5IMKqQLVTHMSeS8n+aF7E66F9CKxaPxOHcPOxHjrer5M/4+xpsMlwOoPLa3TtaUTetQEnwtQ1g2xAbbeYfak956LWD1XrlHte9qVO+EVpDCGS27fAcVEAa/hqf6JX8/UtDO+D1qyonRPtvKJUa17+IT4F1qu1Gv7+Yb7B0bjtl+0m+zZS9i8OEC8ORdnGaD0nDkWOQjr5iKqmVIdeiLJWOapomgeGrKFi4FUaRh5tp+I07n5KPgdnO+75sKwb8hJ3dQN9uz3MHt6+/cyBRHiX7/Ti0/da7G4OIPfR07E2UGxxqrkBURUfQFS3zWujfHk4qGez2Xp9cPj9M2ErWZO+XqFSo3hwexTbjEAdM22nMkd1QanBVusTE0iAEem8VhPQADBVH5y8u5QMSIC67vMrE94qzCZB7JL24cW8dWP3qKQ9KubtPxLzeW4vPXQYTEueXD0/guDo/Rc3nlF2q8Ul1F34njM76ucWHlnQxXHeqZW/kJh0ajhmo8b2L/Dyv7XvJIUBWTf/oQuyg08JEAFUh+NGq1r1OHvCjOqoX0O1WrUxe/ZkVJiM9buwqvGyv8ERg+Gnw2Rrqnkm6HF+SFbTSTnnh2ajoSpx3vKUuPW1d6ylfFT/lsCIVvPCPaSAatzXPLk1K5FMmK2fRCaasbSrSCZEIzG5EacquTKIBohG4qzbHE2RTYiM+Ns8GREcRQZEmvVbVVGkfYlBWH8b2YgyqLjl9mOooogK/OBYJsweVqLu3dZyBZfKuWV8A5ksiqjyagCj9kcswvpVNCPK24UcoXJh2S5aQbwJVM75rprab5EnUlOD95EQQYFp2aptxCR4ugpr3v1Jlt/6ADabTT8rforiDi8zhPjRVxJZUL/TtldDZO3ylA/YbO5mD66vX7++vj7I7npwDm6OwpuxwhKuWkUgIWCu7GFDoB3dcDwHpN3m9fHdztKGoZ2dD8fXfGPWs18qoe24SlsK9y1miEYFLHCnGp1vwONrNq/f6HBLWDrmmwcuZL1+VQlpx8pqoexSobDtlO0ViLJoKuRWOE8Z8X3h8mWbrz+46RzKj9d8O9bfhbXj8ppLK8Rqs7yyFlsrvHVLO7rK8vvnA5fPYjzw6KvfQ9pRdsunKKI4HyRd8cdfdvfYi89gXHq5y/21evZtkihj6tIu+fbLNl998OEzGD9yfxFNq4fxw1OpS/7ssYdpHuwEACLEu1f8X64fBm4Ppyb5xMOCD8GAfoinovhT8nuPNT6EBX0RB5eC9FOvjfarcIAI8YOHEd8JYkTA76TNoEnGhfiGO6MK000rJ1zA30MDIsTX3O1NklB4muLb8CA8H9KO0DbUbjiEzY8RTKj3U44Rg+MaSfYtst+dqI/hzaXXkQCRDth7BM2lcmV7Nb62nZiHJC8Td9qjNt4yJ769G36a8TGivwnl5QTug+5BYB8QOVtESc7tpejiLBcHUU24tMQsioFxm1xCTx47gWy0AEd8rEfwie6mzePIhBsvaSMOvvp3UtbHj0podUZ5jXlUVBSDjeE3dyKbcOMDvSYGxfnZJx+VcC0soaSdUt30IXonXdqI2kkftZfScw3VTSOt9piQWvWDOmnSoGi5sO2eaciiPfrDqCD3brTF0CI8JgmDnSd5eS8B4eqK61Yrq0TRGvtZZDdt3kUHRL4wMRDrX0JsaBKt+LLPjZhP0r4RhK+iTzRId4QN688FcZ1MAdLLj7YntUXtTcXx8A1VDgnCGMMQEbrX/PqJILtuW9qt24hxFgtE6N6a1m8EI4QnKRASNhTFc7JEbb5jjkNiZ3ooGOHX9GeaI5ESrpkMqFjr4R25HgqWYEMGMiIEoVyEpIco1kCUP1P70jdxCH+n3Kcw3TTZpibEZscSnWnZfBmH8IEEHHwK3tRUVh5Fy4D+aO2QbFz2VXTApSXKP6z/EdRNK3sJMkp85cpbMQSOaA84cpiGF6ipB+XX7CV1gT1VzpF7Ru0tHaeJ0U03rql7ZAfvHzmK4SMq20TjhIQjE94xsbagbpo4iuEjMorBOz6MHIpiA1HIiP6T6fRsqP3GiXlHnWvu2FsEdtOEKSV+KhPjkIlDGUaMFqrhmTA4FrVdfpyptLxKTnIep2t3Uc6emFCiQRh09iRXlh9FtPNdoVdD04iRXCjuKbAwp2vyLT+RJnw/5R8fhljzpySvpO7Qu1M6jogJRUn9li+9kk3ChU03jvlZQ8GbmqnJO607DKKXBbOD6InfjyZw65E0G6KjegPeiGJBXcAjLRFtUJd8GTd2+PmJ2Xr9u0iAembbKT91r3ng42ZsbHx85ZGAGSVZeDqSta+nHumlLz0yhzY27jxWicHNpVCZiZZk+estP0U4ixgZSJ0vy82iGZx+FpFPl6w992DcfXiz4+RB6//ZOT7gprMjPiHtZ8tg5HW8bLP58PL4452hj8cv+Xh6hO2ryHy6ZPjJI1tYfx+haf7r9dJFPftedD5d2tGh1wYgQPXbsFn6M5ZnynCglmMaUJalJG+q2QIBX+LhSPN7L8jHhNFee3IBruwhrzyx9PP7kDthme8xBgHexrOgXFktJM07sWMXZa+3gWhp32IYcRDv4D7pi3iU2DwTvkB0I8Z06OW0Y4oFz7fWCMUwYmCCEF8gpQ7qQuS988RBjGrEmIdp8lrqEcVyLtwnM+mKj2PCxLltHFGZl17yCDGmbMJHiXt7vz9KSItmxHo8E6KJNH3C3F64tkQyYlwTPgohftc26MP57wrd3/OuDj7HXO1naUNO9vf9/S+GGMpB7Nd/ZjgO9bcuiVi4RfcLB3JwE/8rMWY3l+qIMo6jkng2pT0Iv8f3mTgp2kkVcj00P/5fm8hW91w8bMr7+80kmaSVtAHD7mlMwn9sesM5SkSY+r60HHLrPTXC1H2LkEvFFAmRFXNpMer+YbTPngohmrRXVtM53c6F9fEfk7DIZ0wlThP0ZavTICwyf1t9tkqdEEykGf/9ekqpE8KR5POnR2ag9Al70hn/625npNQJ1TMpE/ILIKejtAkByEgZ3nelzkxpE8ItRLjv/xWl01XKhADuI8JMT6CRmDKh2svohBn6z8bNUOkSwknGJOwwX3I8M6VKCKWORZjZ9/2a+2kqTULY3s/YhJlOaWZ/rYBUeoRALXUyDmEmMy4KwZgWof5t4xaZTZjpjNuqCmctLSyh7130P/rXydCE+nDsX3RLM9a/wxH+x+cW3Yv+vovKTSiC/rkehvDZi/B3XBBOWwvCBSGrBeG0tSBcELJaEE5bC8IFIasF4bT1f0i4+ezHj2e00/iUCJ/9+Vcm8+LXZ0+VcP3HC/Pyz1/WnyLh5ubfTsF/1zefHKHRQR395eqq80z408bAHdRVtrn+BAj/MiHW1//mldpddTPCHUUjzPyNloZNqoM6Ql1VL/4Z4YbCEWZ+/vrjzxexi1mJR5i2FoTzrwXh/GtBOP9aEM6/FoTzrwXh/GtBOP/6H7s8pBcvUsQDAAAAAElFTkSuQmCC;" vertex="1" parent="1">
          <mxGeometry x="17" y="342" width="77.02" height="77.02" as="geometry" />
        </mxCell>
        <mxCell id="RYZTqpbMyyFkifUs5dxj-205" value="Text" style="text;html=1;strokeColor=none;fillColor=none;align=center;verticalAlign=middle;whiteSpace=wrap;rounded=0;fontSize=8;" vertex="1" parent="1">
          <mxGeometry x="204" y="398" width="60" height="30" as="geometry" />
        </mxCell>
        <mxCell id="RYZTqpbMyyFkifUs5dxj-207" style="edgeStyle=none;rounded=0;orthogonalLoop=1;jettySize=auto;html=1;exitX=1;exitY=0.5;exitDx=0;exitDy=0;fontSize=8;startArrow=none;startFill=0;endArrow=classic;endFill=1;startSize=8;endSize=8;entryX=0.997;entryY=0.89;entryDx=0;entryDy=0;entryPerimeter=0;" edge="1" parent="1" source="RYZTqpbMyyFkifUs5dxj-183">
          <mxGeometry relative="1" as="geometry">
            <mxPoint x="78.63999999999987" y="627.6399999999999" as="targetPoint" />
            <Array as="points">
              <mxPoint x="422" y="463" />
              <mxPoint x="428" y="625" />
            </Array>
          </mxGeometry>
        </mxCell>
        <mxCell id="RYZTqpbMyyFkifUs5dxj-208" style="edgeStyle=none;rounded=0;orthogonalLoop=1;jettySize=auto;html=1;exitX=1;exitY=0.5;exitDx=0;exitDy=0;fontSize=8;startArrow=none;startFill=0;endArrow=classic;endFill=1;startSize=8;endSize=8;" edge="1" parent="1" source="RYZTqpbMyyFkifUs5dxj-185">
          <mxGeometry relative="1" as="geometry">
            <mxPoint x="73" y="671" as="targetPoint" />
            <Array as="points">
              <mxPoint x="705" y="353" />
              <mxPoint x="705" y="673" />
            </Array>
          </mxGeometry>
        </mxCell>
        <mxCell id="RYZTqpbMyyFkifUs5dxj-209" style="edgeStyle=none;rounded=0;orthogonalLoop=1;jettySize=auto;html=1;exitX=0;exitY=0.5;exitDx=0;exitDy=0;fontSize=8;startArrow=none;startFill=0;endArrow=classic;endFill=1;startSize=8;endSize=8;" edge="1" parent="1" source="RYZTqpbMyyFkifUs5dxj-184">
          <mxGeometry relative="1" as="geometry">
            <mxPoint x="79" y="646" as="targetPoint" />
            <Array as="points">
              <mxPoint x="676" y="607" />
              <mxPoint x="676" y="651" />
            </Array>
          </mxGeometry>
        </mxCell>
        <mxCell id="RYZTqpbMyyFkifUs5dxj-210" value="Sumo logic" style="rounded=1;whiteSpace=wrap;html=1;fontSize=8;" vertex="1" parent="1">
          <mxGeometry x="-45" y="609" width="120" height="76" as="geometry" />
        </mxCell>
        <mxCell id="RYZTqpbMyyFkifUs5dxj-211" value="Text" style="text;html=1;strokeColor=none;fillColor=none;align=center;verticalAlign=middle;whiteSpace=wrap;rounded=0;fontSize=8;" vertex="1" parent="1">
          <mxGeometry x="204" y="432" width="60" height="30" as="geometry" />
        </mxCell>
      </root>
    </mxGraphModel>
  </diagram>
</mxfile>
